<?xml version="1.0" standalone="no"?>
<!DOCTYPE svg PUBLIC "-//W3C//DTD SVG 20010904//EN"
 "http://www.w3.org/TR/2001/REC-SVG-20010904/DTD/svg10.dtd">
<svg version="1.0" xmlns="http://www.w3.org/2000/svg"
 width="300.000000pt" height="141.000000pt" viewBox="0 0 300.000000 141.000000"
 preserveAspectRatio="xMidYMid meet">
<metadata>
Created by potrace 1.10, written by Peter Selinger 2001-2011
</metadata>
<g transform="translate(0.000000,141.000000) scale(0.100000,-0.100000)"
fill="#000000" stroke="none">
<path d="M1669 1134 c-13 -14 -46 -39 -74 -55 -56 -32 -54 -39 3 -10 32 17
115 91 101 91 -3 0 -16 -12 -30 -26z"/>
<path d="M578 1103 c18 -2 45 -2 60 0 15 2 0 4 -33 4 -33 0 -45 -2 -27 -4z"/>
<path d="M2320 820 c-16 -22 -18 -30 -8 -30 8 0 24 14 36 30 17 23 19 30 8 30
-8 0 -24 -13 -36 -30z"/>
<path d="M706 832 c-2 -4 -1 -14 4 -22 7 -11 11 -11 24 -1 9 7 13 17 10 22 -7
11 -31 12 -38 1z"/>
<path d="M450 700 c0 -109 2 -130 15 -130 12 0 15 13 15 60 l0 60 71 0 72 0
-6 -60 c-5 -54 -3 -60 14 -60 18 0 19 9 19 130 0 122 -1 130 -19 130 -18 0
-19 -5 -14 -55 l6 -55 -73 0 -72 0 4 55 c3 47 0 55 -14 55 -16 0 -18 -13 -18
-130z"/>
<path d="M980 700 c0 -109 2 -130 15 -130 13 0 15 21 15 130 0 109 -2 130 -15
130 -13 0 -15 -21 -15 -130z"/>
<path d="M1070 790 c0 -29 4 -40 15 -40 11 0 15 11 15 40 0 29 -4 40 -15 40
-11 0 -15 -11 -15 -40z"/>
<path d="M1550 815 c0 -11 11 -15 40 -15 l40 0 0 -115 c0 -96 3 -115 15 -115
12 0 15 19 15 115 l0 115 40 0 c29 0 40 4 40 15 0 12 -17 15 -95 15 -78 0 -95
-3 -95 -15z"/>
<path d="M710 665 c0 -78 3 -95 15 -95 12 0 15 17 15 95 0 78 -3 95 -15 95
-12 0 -15 -17 -15 -95z"/>
<path d="M1160 665 c0 -78 3 -95 15 -95 12 0 15 14 15 68 0 54 4 72 18 85 25
23 39 21 58 -7 11 -17 15 -43 13 -83 -2 -48 0 -59 14 -61 15 -3 17 6 17 67 0
70 14 101 44 101 26 0 36 -26 36 -97 0 -58 3 -73 15 -73 22 0 22 152 -1 174
-20 21 -63 20 -87 -1 -18 -17 -19 -17 -28 0 -13 21 -62 22 -83 1 -15 -14 -16
-14 -16 0 0 9 -7 16 -15 16 -12 0 -15 -17 -15 -95z"/>
<path d="M1746 729 c-54 -64 -15 -159 65 -159 57 0 89 34 89 95 0 61 -32 95
-89 95 -32 0 -44 -6 -65 -31z m104 -9 c23 -23 27 -78 8 -102 -24 -30 -56 -31
-83 -4 -32 32 -32 70 0 101 29 30 49 31 75 5z"/>
<path d="M1950 665 c0 -78 3 -95 15 -95 12 0 15 14 15 68 0 57 4 72 21 88 15
14 24 16 37 8 13 -9 18 -29 20 -88 3 -69 5 -76 24 -76 19 0 20 4 16 58 -8 87
16 126 63 102 16 -9 19 -22 19 -85 0 -60 3 -75 15 -75 24 0 21 151 -3 173 -23
21 -66 22 -86 1 -15 -14 -17 -14 -32 0 -8 9 -26 16 -39 16 -13 0 -31 -7 -39
-16 -15 -14 -16 -14 -16 0 0 9 -7 16 -15 16 -12 0 -15 -17 -15 -95z"/>
<path d="M2283 753 c-7 -2 -13 -12 -13 -20 0 -10 5 -13 18 -8 38 16 50 16 66
0 25 -26 20 -33 -29 -41 -67 -10 -97 -61 -57 -97 24 -22 60 -22 84 0 17 15 18
15 18 0 0 -10 7 -17 15 -17 12 0 15 15 15 73 0 91 -15 117 -68 116 -20 0 -43
-3 -49 -6z m87 -103 c0 -20 -32 -60 -48 -60 -5 0 -17 6 -28 14 -33 25 -4 53
69 65 4 0 7 -8 7 -19z"/>
<path d="M2456 741 c-28 -30 -14 -64 34 -86 25 -11 40 -25 40 -36 0 -23 -33
-33 -60 -19 -25 13 -35 8 -27 -15 8 -19 76 -21 101 -2 30 22 17 69 -23 89 -51
25 -58 35 -39 54 13 14 22 15 48 6 28 -10 31 -9 28 6 -5 27 -79 29 -102 3z"/>
<path d="M796 612 c-3 -5 -8 -28 -12 -50 -8 -53 8 -56 25 -4 7 20 15 43 17 50
6 13 -22 17 -30 4z"/>
</g>
</svg>
